<svg xmlns="http://www.w3.org/2000/svg" width="1696" height="608" viewBox="0 0 1696 608">
<g>
<path d="M 0.00 0.00 L 1696.00 0.00 L 1696.00 608.00 L 0.00 608.00 ZM 120.25 216.44 C122.23,217.89 411.89,217.37 413.44,215.91 C414.30,215.09 413.85,209.42 411.02,185.50 C410.57,181.65 409.68,174.00 409.05,168.50 C407.51,155.06 406.03,148.29 403.59,143.52 C401.19,138.81 392.74,129.94 388.50,127.67 C379.36,122.78 378.89,122.71 347.00,122.09 L 316.50 121.50 L 315.78 105.50 C315.04,89.20 313.64,81.08 309.40,68.34 C302.17,46.68 284.65,27.73 261.15,16.13 C257.65,14.41 254.16,13.00 253.38,13.00 C252.61,13.00 251.19,12.57 250.24,12.04 C241.82,7.41 214.72,6.19 200.97,9.84 C181.89,14.89 165.25,24.83 153.50,38.20 C149.65,42.58 145.99,46.72 145.36,47.40 C144.74,48.08 142.84,51.08 141.16,54.07 C131.98,70.33 128.03,86.73 128.01,108.63 L 128.00 121.77 L 97.75 122.22 C76.24,122.53 66.63,123.03 64.50,123.94 C54.85,128.07 51.95,129.92 46.83,135.21 C39.40,142.88 35.32,152.33 34.84,163.00 L 34.50 170.50 L 60.50 171.07 C87.22,171.66 89.19,171.94 97.86,176.43 C102.43,178.79 108.75,185.79 111.64,191.70 C114.20,196.93 115.16,199.95 117.39,209.87 C118.06,212.82 119.34,215.78 120.25,216.44 ZM 224.84 416.24 C253.26,416.38 305.30,416.49 340.50,416.47 L 404.50 416.45 L 409.50 414.17 C414.82,411.75 424.00,402.87 424.01,400.14 C424.01,399.24 424.68,397.21 425.51,395.64 C426.33,394.06 427.00,391.81 427.00,390.64 C426.99,389.46 427.64,386.48 428.43,384.00 C430.02,379.05 433.72,363.80 434.88,357.46 C435.29,355.24 435.96,352.88 436.37,352.21 C436.78,351.54 437.51,348.86 437.98,346.25 C438.45,343.64 439.57,338.80 440.46,335.50 C442.59,327.58 444.87,318.45 445.96,313.50 C446.44,311.30 447.57,306.80 448.48,303.50 C449.39,300.20 450.47,295.70 450.89,293.50 C451.30,291.30 452.15,287.92 452.76,286.00 C455.30,278.02 458.29,264.09 458.72,258.26 C459.23,251.23 457.26,246.75 452.03,243.02 C450.94,242.25 450.14,241.52 449.20,241.21 C444.89,239.78 437.71,247.01 387.29,297.76 C384.68,300.39 381.95,303.14 379.10,306.00 C329.64,355.77 313.94,371.00 312.12,371.00 C310.81,371.00 308.33,370.12 306.62,369.04 C303.05,366.80 258.13,320.95 256.29,317.66 C253.95,313.50 254.95,309.02 259.30,304.25 C260.92,302.47 262.43,302.00 266.56,302.00 L 271.77 302.00 L 290.38 320.50 C300.61,330.67 309.44,339.11 309.98,339.25 C311.59,339.66 407.13,243.77 406.56,242.31 C406.28,241.57 404.40,240.96 402.28,240.91 C385.25,240.51 156.65,241.16 143.25,241.65 C131.49,242.08 127.22,242.06 126.18,243.88 C125.60,244.89 126.03,246.49 126.73,249.06 C126.84,249.48 126.96,249.92 127.08,250.38 C128.80,256.92 130.76,264.07 132.44,269.86 C133.30,272.82 134.00,275.87 134.00,276.65 C134.00,277.43 135.09,281.54 136.42,285.78 C137.75,290.03 139.56,296.20 140.45,299.50 C141.34,302.80 142.46,306.85 142.93,308.50 C146.29,320.10 151.05,337.83 151.67,341.00 C151.93,342.38 152.56,344.40 153.06,345.50 C153.56,346.60 154.40,349.30 154.94,351.50 C156.93,359.68 159.23,367.98 162.98,380.50 C163.48,382.15 164.38,385.52 165.00,388.00 C167.22,396.97 168.28,400.56 169.63,403.65 C170.38,405.38 171.00,407.45 171.00,408.25 C171.00,409.05 171.49,411.11 172.09,412.84 L 173.19 415.98 ZM 38.04 523.44 C43.23,524.57 55.97,524.81 103.00,524.67 L 161.50 524.50 L 162.05 513.50 C162.57,503.22 162.88,501.92 166.79,493.63 L 170.98 484.76 L 167.97 480.96 C164.58,476.69 161.04,469.25 159.90,464.00 C159.48,462.08 158.67,458.92 158.11,457.00 C157.55,455.08 156.41,451.02 155.58,448.00 C154.75,444.98 153.34,440.02 152.45,437.00 C151.56,433.98 150.44,430.15 149.96,428.50 C149.47,426.85 148.34,423.02 147.44,420.00 C146.54,416.98 145.21,412.25 144.48,409.50 C143.75,406.75 142.40,401.80 141.46,398.50 C140.53,395.20 139.41,390.92 138.98,389.00 C138.55,387.08 137.43,382.80 136.49,379.50 C135.55,376.20 134.40,372.15 133.93,370.50 C133.47,368.85 132.35,365.02 131.46,362.00 C130.57,358.98 128.97,353.12 127.91,349.00 C126.85,344.88 125.33,339.48 124.55,337.00 C123.27,332.99 122.06,328.66 118.98,317.00 C118.47,315.08 117.38,311.02 116.57,308.00 C113.03,294.90 110.77,286.26 110.03,283.00 C109.59,281.08 108.47,276.80 107.53,273.50 C106.59,270.20 105.37,265.70 104.82,263.50 C104.28,261.30 103.46,258.60 103.00,257.50 C102.54,256.40 101.65,253.48 101.02,251.00 C100.38,248.52 99.46,244.93 98.97,243.00 C98.47,241.07 97.43,236.57 96.65,233.00 C95.87,229.43 94.78,224.70 94.22,222.50 C91.13,210.24 89.85,203.99 86.02,200.79 C82.04,197.47 75.33,197.43 61.02,197.34 C59.88,197.33 58.69,197.32 57.46,197.31 C44.23,197.21 32.80,197.51 32.05,197.97 C31.19,198.50 30.21,202.91 29.35,210.15 C28.61,216.39 27.58,225.10 27.06,229.50 C26.54,233.90 25.61,242.00 25.00,247.50 C24.40,253.00 23.48,260.42 22.98,264.00 C21.99,271.02 20.29,286.39 19.00,300.00 C18.55,304.67 17.93,309.17 17.60,310.00 C17.28,310.83 16.58,316.23 16.05,322.00 C15.51,327.77 13.90,342.17 12.45,354.00 C11.01,365.83 9.24,380.67 8.52,387.00 C5.59,412.72 2.97,433.89 1.88,440.50 C0.48,449.04 -0.42,492.11 0.79,492.92 C1.27,493.24 2.75,495.74 4.08,498.47 C9.55,509.71 24.10,520.41 38.04,523.44 ZM 1180.60 369.16 C1181.34,370.37 1283.70,370.20 1294.50,368.97 C1327.67,365.19 1347.67,349.66 1352.59,323.87 C1354.42,314.29 1354.37,308.43 1352.40,301.30 C1351.52,298.11 1350.56,294.38 1350.27,293.00 C1349.98,291.62 1349.21,289.83 1348.57,289.00 C1347.93,288.17 1346.52,285.77 1345.45,283.65 C1341.83,276.49 1329.41,267.05 1320.25,264.49 C1316.83,263.54 1317.54,261.46 1322.25,258.68 C1345.06,245.21 1352.96,214.74 1340.49,188.38 C1336.04,178.99 1324.75,169.00 1313.90,164.89 C1303.17,160.81 1290.94,160.07 1234.37,160.03 C1188.64,160.00 1181.07,160.21 1180.02,161.48 C1179.05,162.64 1178.92,185.11 1179.43,265.64 C1179.78,322.11 1180.31,368.69 1180.60,369.16 ZM 1421.50 371.53 C1425.90,372.24 1430.85,372.67 1432.50,372.47 C1434.15,372.27 1438.20,371.83 1441.50,371.49 C1448.00,370.83 1453.52,369.17 1461.78,365.41 C1464.68,364.08 1467.32,363.00 1467.64,363.00 C1468.69,363.00 1481.44,352.67 1483.32,350.30 C1484.32,349.03 1485.50,348.00 1485.93,348.00 C1486.37,348.00 1487.04,351.45 1487.42,355.66 C1487.80,359.87 1488.78,364.60 1489.59,366.18 L 1491.07 369.04 L 1510.79 368.77 L 1530.50 368.50 L 1530.78 352.61 C1531.02,338.55 1530.85,336.49 1529.28,334.75 C1527.62,332.91 1527.50,328.87 1527.50,273.14 L 1527.50 213.50 L 1506.63 213.23 C1492.07,213.04 1485.34,213.30 1484.38,214.10 C1483.24,215.04 1483.00,223.58 1482.99,262.37 C1482.98,288.29 1482.68,311.30 1482.32,313.50 C1481.81,316.63 1480.34,318.83 1475.58,323.59 C1467.54,331.63 1459.90,335.00 1449.66,335.00 C1441.59,335.00 1436.34,333.11 1431.59,328.50 C1424.54,321.65 1424.64,322.51 1424.04,265.00 L 1423.50 213.50 L 1403.13 213.23 C1388.43,213.03 1382.35,213.29 1381.31,214.15 C1380.08,215.18 1379.92,223.79 1380.19,273.43 C1380.48,327.44 1380.63,331.88 1382.40,337.00 C1390.02,359.02 1400.27,368.07 1421.50,371.53 ZM 768.78 371.43 C777.87,373.24 784.00,373.27 793.50,371.55 C803.13,369.81 810.28,367.23 817.01,363.09 C819.77,361.39 822.47,360.00 823.02,360.00 C823.56,360.00 826.71,357.29 830.02,353.98 C836.47,347.53 836.60,347.56 837.27,355.50 C837.51,358.25 838.56,362.30 839.61,364.50 L 841.52 368.50 L 880.50 368.50 L 880.50 352.00 C880.50,337.78 880.25,335.15 878.72,333.00 C877.04,330.65 876.98,327.23 877.63,274.45 C878.01,243.62 878.01,217.17 877.63,215.68 L 876.95 212.96 L 855.73 213.23 L 834.50 213.50 L 833.92 264.00 C833.27,320.68 833.74,317.30 825.50,324.89 C818.78,331.09 811.11,334.35 802.12,334.83 C790.38,335.47 784.00,332.53 778.52,323.99 C774.47,317.65 773.78,307.32 774.23,259.07 C774.54,225.58 774.35,214.71 773.44,213.95 C772.71,213.34 764.16,213.06 751.37,213.23 L 730.50 213.50 L 730.50 271.50 C730.50,325.45 730.63,329.92 732.38,335.50 C733.41,338.80 734.65,341.93 735.13,342.45 C735.61,342.97 736.00,344.24 736.00,345.27 C736.00,347.73 740.64,354.38 746.32,360.06 C751.89,365.62 759.84,369.65 768.78,371.43 ZM 1577.00 427.43 C1578.38,427.67 1584.24,427.71 1590.04,427.51 C1613.56,426.73 1629.32,416.63 1639.23,396.00 C1644.91,384.20 1648.00,376.78 1648.00,374.99 C1648.00,373.96 1648.38,372.88 1648.85,372.59 C1649.32,372.30 1650.72,369.01 1651.97,365.28 C1653.21,361.55 1654.62,358.07 1655.11,357.55 C1655.60,357.03 1656.00,355.91 1656.00,355.07 C1656.00,353.71 1658.54,346.27 1662.50,336.00 C1663.24,334.08 1665.03,329.12 1666.47,325.00 C1667.90,320.88 1669.74,316.23 1670.54,314.67 C1671.34,313.11 1672.00,311.06 1672.00,310.12 C1672.00,309.17 1672.38,307.97 1672.84,307.45 C1673.30,306.93 1675.14,302.45 1676.93,297.50 C1678.72,292.55 1680.77,287.15 1681.49,285.50 C1682.21,283.85 1683.50,280.48 1684.35,278.00 C1685.20,275.52 1686.84,271.02 1687.99,268.00 C1695.84,247.35 1695.98,246.66 1695.99,229.25 L 1696.00 213.00 L 1680.52 213.00 C1679.51,213.00 1678.57,213.00 1677.67,213.00 C1669.81,212.98 1666.36,212.97 1664.31,214.66 C1662.48,216.17 1661.77,219.05 1660.02,224.50 C1658.78,228.35 1657.43,232.19 1657.01,233.03 C1656.60,233.88 1655.91,236.11 1655.50,238.00 C1655.09,239.89 1654.41,242.12 1654.01,242.97 C1652.77,245.54 1650.82,251.36 1650.32,254.00 C1650.06,255.38 1649.45,257.40 1648.95,258.50 C1647.20,262.41 1645.03,269.53 1645.01,271.43 C1645.01,272.49 1644.59,274.74 1644.09,276.43 C1641.66,284.63 1639.76,290.69 1639.06,292.50 C1638.63,293.60 1637.49,297.20 1636.52,300.50 C1634.43,307.63 1633.09,311.78 1631.99,314.50 C1631.55,315.60 1630.93,317.29 1630.62,318.25 C1629.88,320.58 1627.00,320.50 1627.00,318.15 C1627.00,317.13 1625.84,313.19 1624.43,309.40 C1623.02,305.60 1620.94,299.58 1619.80,296.00 C1618.67,292.42 1617.35,289.07 1616.87,288.55 C1616.39,288.03 1616.00,286.43 1616.00,285.00 C1616.00,283.57 1615.62,281.97 1615.16,281.45 C1614.70,280.93 1613.29,277.35 1612.04,273.50 C1610.78,269.65 1609.42,266.05 1609.01,265.50 C1608.60,264.95 1608.02,263.38 1607.72,262.00 C1607.41,260.62 1605.75,255.68 1604.01,251.00 C1602.28,246.32 1600.47,241.15 1599.99,239.50 C1598.05,232.83 1593.80,221.44 1592.93,220.55 C1592.42,220.03 1592.00,218.62 1592.00,217.42 C1592.00,213.22 1590.39,212.94 1567.87,213.23 C1546.98,213.49 1546.49,213.55 1546.20,215.61 C1546.03,216.77 1548.42,224.20 1551.50,232.11 C1559.90,253.72 1560.65,255.60 1563.53,262.50 C1565.63,267.51 1566.79,270.32 1568.49,274.50 C1569.39,276.70 1570.96,280.30 1571.99,282.50 C1574.82,288.56 1578.48,296.98 1580.48,302.00 C1581.46,304.48 1583.33,308.87 1584.63,311.78 C1585.94,314.68 1587.00,317.48 1587.00,317.99 C1587.00,318.51 1587.74,320.63 1588.64,322.72 C1589.54,324.80 1590.71,327.62 1591.23,329.00 C1591.76,330.38 1592.82,332.77 1593.59,334.33 C1594.37,335.89 1595.00,338.00 1595.00,339.02 C1595.00,340.04 1595.40,341.13 1595.88,341.43 C1596.99,342.11 1600.00,351.21 1600.00,353.88 C1600.00,354.98 1600.45,356.16 1601.00,356.50 C1601.55,356.84 1602.01,358.10 1602.03,359.31 C1602.05,360.51 1602.72,362.37 1603.53,363.44 C1607.45,368.62 1601.99,381.46 1593.62,386.74 C1589.77,389.17 1589.13,389.25 1578.80,388.71 L 1568.00 388.14 L 1567.46 390.82 C1567.16,392.29 1566.48,395.13 1565.95,397.12 C1565.43,399.10 1565.00,402.06 1565.00,403.69 C1565.00,405.31 1564.36,408.64 1563.59,411.07 C1561.47,417.69 1560.97,422.73 1562.32,423.83 C1563.35,424.66 1568.96,426.04 1577.00,427.43 ZM 957.50 370.99 C961.90,371.38 967.75,371.73 970.50,371.77 C980.31,371.94 1000.43,368.88 1002.45,366.92 C1002.97,366.42 1003.98,366.00 1004.69,366.00 C1005.39,366.00 1009.19,364.09 1013.13,361.75 C1020.51,357.37 1028.05,349.51 1031.14,342.97 C1032.05,341.06 1033.40,338.19 1034.14,336.60 C1035.07,334.62 1035.47,329.85 1035.41,321.60 C1035.33,310.58 1035.08,309.00 1032.61,303.88 C1027.31,292.93 1016.59,285.29 998.50,279.59 C995.75,278.73 991.35,277.34 988.72,276.51 C986.08,275.68 983.26,275.00 982.45,275.00 C981.64,275.00 980.19,274.59 979.24,274.09 C978.28,273.58 974.35,272.41 970.50,271.47 C955.83,267.92 950.00,263.59 950.00,256.25 C950.00,252.55 950.55,251.25 953.30,248.50 C957.24,244.56 962.24,243.01 971.00,243.02 C978.38,243.02 995.04,246.84 1000.57,249.79 C1012.64,256.22 1017.20,258.08 1018.41,257.08 C1019.13,256.48 1021.61,252.28 1023.92,247.75 C1026.24,243.21 1029.22,237.52 1030.56,235.09 C1033.57,229.66 1033.59,228.62 1030.75,226.76 C1028.00,224.96 1013.95,219.00 1012.46,219.00 C1011.86,219.00 1008.93,217.80 1005.94,216.33 C1000.80,213.80 998.21,213.15 985.00,211.05 C966.43,208.09 942.99,212.26 930.63,220.72 C921.87,226.72 914.21,236.61 910.90,246.20 C908.00,254.58 908.32,267.69 911.64,276.36 C916.22,288.35 928.38,298.51 943.50,302.98 C945.70,303.64 948.85,304.62 950.50,305.17 C955.36,306.80 965.92,309.74 975.39,312.10 C989.86,315.71 996.02,323.26 991.55,331.90 C989.49,335.88 985.36,338.27 979.00,339.16 C973.01,339.99 955.08,338.42 953.55,336.93 C953.03,336.42 951.68,336.00 950.55,335.99 C949.42,335.99 947.21,335.32 945.64,334.49 C944.06,333.67 941.78,333.00 940.57,333.00 C937.79,333.00 928.81,328.70 923.23,324.70 C920.55,322.77 918.61,321.99 918.02,322.58 C917.50,323.10 914.79,327.96 912.01,333.38 C909.22,338.80 906.28,344.19 905.47,345.34 C903.36,348.36 903.66,351.30 906.25,352.97 C922.32,363.36 939.57,369.42 957.50,370.99 ZM 611.00 371.46 C644.13,377.05 673.02,364.54 687.13,338.50 C689.75,333.65 693.70,321.04 694.95,313.50 C695.79,308.50 696.03,285.65 695.81,233.50 L 695.50 160.50 L 651.50 160.50 L 651.00 235.50 C650.53,305.82 650.38,310.75 648.65,314.50 C645.73,320.78 640.70,326.29 635.38,329.01 C628.66,332.44 614.90,332.54 607.80,329.20 C605.22,327.99 602.87,327.00 602.57,327.00 C601.05,327.00 591.10,320.22 588.37,317.32 C586.64,315.50 584.76,314.00 584.18,314.00 C583.61,314.00 579.25,319.84 574.51,326.99 C569.77,334.13 565.24,340.62 564.44,341.42 C561.44,344.42 562.81,346.78 571.73,353.96 C584.08,363.90 594.97,368.75 611.00,371.46 ZM 1101.83 371.55 C1109.54,373.24 1116.09,373.23 1125.00,371.52 C1136.00,369.40 1144.75,366.60 1150.00,363.54 C1153.54,361.47 1153.29,358.62 1147.91,340.43 C1147.41,338.74 1147.00,336.24 1147.00,334.87 C1147.00,333.50 1146.36,331.51 1145.57,330.44 C1144.16,328.53 1144.08,328.53 1139.32,330.40 C1136.67,331.45 1131.57,332.49 1128.00,332.72 C1121.62,333.13 1121.43,333.06 1118.00,329.51 L 1114.50 325.89 L 1113.91 248.05 L 1146.50 247.50 L 1146.50 213.50 L 1130.45 213.23 L 1114.41 212.95 L 1114.45 190.73 L 1114.50 168.50 L 1093.07 168.23 C1080.12,168.07 1071.26,168.34 1070.67,168.93 C1070.10,169.50 1069.65,178.86 1069.60,191.20 L 1069.50 212.50 L 1048.50 213.50 L 1048.50 247.50 L 1058.62 247.78 L 1068.75 248.07 L 1069.30 291.28 C1069.62,316.46 1070.29,336.38 1070.92,339.00 C1072.71,346.55 1074.30,351.42 1075.47,353.00 C1076.08,353.83 1077.17,355.62 1077.87,357.00 C1079.46,360.09 1088.34,367.20 1092.83,368.99 C1094.67,369.71 1098.72,370.87 1101.83,371.55 ZM 285.73 105.25 L 286.26 122.00 L 158.00 122.00 L 158.00 108.81 C158.00,95.24 159.11,86.49 161.73,79.50 C164.42,72.33 166.49,68.02 167.25,68.01 C167.66,68.01 168.00,67.55 168.00,66.99 C168.00,65.96 171.91,60.34 175.50,56.19 C181.08,49.77 194.21,41.84 205.00,38.40 C211.58,36.30 230.04,36.03 237.00,37.93 C244.61,40.01 259.29,47.67 263.50,51.76 C268.48,56.59 273.80,63.06 276.74,67.85 C279.35,72.09 279.44,72.30 283.96,85.00 C284.67,86.97 285.44,95.81 285.73,105.25 ZM 419.48 508.75 C420.55,511.66 425.81,508.62 429.15,503.17 C436.20,491.65 438.02,485.35 437.93,472.75 C437.89,467.11 437.46,460.02 436.97,457.00 C436.49,453.98 435.59,446.55 434.98,440.50 C433.67,427.58 432.64,425.80 428.40,429.19 C418.97,436.70 412.90,439.35 401.40,440.95 C396.04,441.70 360.24,442.03 290.00,441.98 C233.07,441.94 185.26,441.93 183.75,441.96 C181.57,441.99 181.01,442.46 181.03,444.25 C181.08,448.07 187.80,466.38 189.64,467.73 C190.97,468.70 199.90,469.01 227.44,469.05 C410.53,469.32 415.34,469.38 418.05,471.44 C419.45,472.50 421.33,475.10 422.23,477.21 C423.67,480.58 423.71,481.68 422.53,486.22 C421.27,491.08 420.60,492.01 416.54,494.50 C414.90,495.51 415.26,497.23 419.48,508.75 ZM 1292.00 329.00 C1289.95,330.23 1283.81,330.56 1257.98,330.81 C1240.64,330.98 1226.13,330.80 1225.73,330.40 C1225.33,329.99 1225.00,319.17 1225.00,306.33 L 1225.00 283.00 L 1255.82 283.00 C1290.04,283.00 1292.98,283.43 1299.34,289.33 C1304.57,294.19 1306.31,298.47 1306.35,306.50 C1306.40,317.00 1302.92,322.45 1292.00,329.00 ZM 1286.79 243.10 C1283.40,244.83 1280.59,245.00 1254.61,245.00 L 1226.14 245.00 L 1225.81 223.25 C1225.63,211.29 1225.62,201.16 1225.80,200.75 C1226.28,199.63 1279.96,199.84 1283.92,200.98 C1289.11,202.47 1294.86,206.90 1296.78,210.90 C1299.07,215.69 1299.22,231.67 1297.00,234.37 C1293.62,238.47 1290.30,241.31 1286.79,243.10 ZM 201.40 542.60 C212.60,547.82 225.79,544.92 233.66,535.51 C244.05,523.07 243.28,507.52 231.68,495.92 C224.84,489.07 210.67,485.84 203.64,489.51 C202.06,490.33 200.26,491.00 199.64,491.00 C197.81,491.00 190.58,498.11 187.42,503.00 C184.82,507.01 184.51,508.37 184.50,515.50 C184.50,521.71 185.00,524.55 186.73,528.20 C189.64,534.33 195.06,539.65 201.40,542.60 ZM 362.50 544.81 C383.37,550.54 402.51,530.17 396.33,508.83 C393.03,497.43 380.97,488.01 369.64,488.00 C366.42,487.99 357.62,490.71 355.07,492.50 C351.46,495.03 344.00,503.40 344.00,504.91 C344.00,505.84 343.49,507.11 342.86,507.74 C342.21,508.39 341.68,512.44 341.63,517.19 C341.55,523.73 341.95,526.25 343.50,529.00 C347.74,536.53 355.31,542.84 362.50,544.81 ZM 269.93 525.21 C272.99,525.37 284.95,525.50 296.50,525.50 L 317.50 525.50 L 317.67 519.00 C317.85,512.02 319.85,503.31 322.35,498.57 C323.20,496.96 323.67,495.27 323.39,494.82 C322.70,493.71 261.26,493.77 260.57,494.88 C260.27,495.36 261.02,498.63 262.23,502.13 C263.83,506.75 264.42,510.76 264.39,516.71 L 264.35 524.91 Z" fill="rgb(2,5,4)"/>
<path d="M 120.25 216.44 C119.34,215.78 118.06,212.82 117.39,209.87 C115.16,199.95 114.20,196.93 111.64,191.70 C108.75,185.79 102.43,178.79 97.86,176.43 C89.19,171.94 87.22,171.66 60.50,171.07 L 34.50 170.50 L 34.84 163.00 C35.32,152.33 39.40,142.88 46.83,135.21 C51.95,129.92 54.85,128.07 64.50,123.94 C66.63,123.03 76.24,122.53 97.75,122.22 L 128.00 121.77 L 128.01 108.63 C128.03,86.73 131.98,70.33 141.16,54.07 C142.84,51.08 144.74,48.08 145.36,47.40 C145.99,46.72 149.65,42.58 153.50,38.20 C165.25,24.83 181.89,14.89 200.97,9.84 C214.72,6.19 241.82,7.41 250.24,12.04 C251.19,12.57 252.61,13.00 253.38,13.00 C254.16,13.00 257.65,14.41 261.15,16.13 C284.65,27.73 302.17,46.68 309.40,68.34 C313.64,81.08 315.04,89.20 315.78,105.50 L 316.50 121.50 L 347.00 122.09 C378.89,122.71 379.36,122.78 388.50,127.67 C392.74,129.94 401.19,138.81 403.59,143.52 C406.03,148.29 407.51,155.06 409.05,168.50 C409.68,174.00 410.57,181.65 411.02,185.50 C413.85,209.42 414.30,215.09 413.44,215.91 C411.89,217.37 122.23,217.89 120.25,216.44 ZM 38.04 523.44 C24.10,520.41 9.55,509.71 4.08,498.47 C2.75,495.74 1.27,493.24 0.79,492.92 C-0.42,492.11 0.48,449.04 1.88,440.50 C2.97,433.89 5.59,412.72 8.52,387.00 C9.24,380.67 11.01,365.83 12.45,354.00 C13.90,342.17 15.51,327.77 16.05,322.00 C16.58,316.23 17.28,310.83 17.60,310.00 C17.93,309.17 18.55,304.67 19.00,300.00 C20.29,286.39 21.99,271.02 22.98,264.00 C23.48,260.42 24.40,253.00 25.00,247.50 C25.61,242.00 26.54,233.90 27.06,229.50 C27.58,225.10 28.61,216.39 29.35,210.15 C30.21,202.91 31.19,198.50 32.05,197.97 C32.80,197.51 44.23,197.21 57.46,197.31 C58.69,197.32 59.88,197.33 61.02,197.34 C75.33,197.43 82.04,197.47 86.02,200.79 C89.85,203.99 91.13,210.24 94.22,222.50 C94.78,224.70 95.87,229.43 96.65,233.00 C97.43,236.57 98.47,241.07 98.97,243.00 C99.46,244.93 100.38,248.52 101.02,251.00 C101.65,253.48 102.54,256.40 103.00,257.50 C103.46,258.60 104.28,261.30 104.82,263.50 C105.37,265.70 106.59,270.20 107.53,273.50 C108.47,276.80 109.59,281.08 110.03,283.00 C110.77,286.26 113.03,294.90 116.57,308.00 C117.38,311.02 118.47,315.08 118.98,317.00 C122.06,328.66 123.27,332.99 124.55,337.00 C125.33,339.48 126.85,344.88 127.91,349.00 C128.97,353.12 130.57,358.98 131.46,362.00 C132.35,365.02 133.47,368.85 133.93,370.50 C134.40,372.15 135.55,376.20 136.49,379.50 C137.43,382.80 138.55,387.08 138.98,389.00 C139.41,390.92 140.53,395.20 141.46,398.50 C142.40,401.80 143.75,406.75 144.48,409.50 C145.21,412.25 146.54,416.98 147.44,420.00 C148.34,423.02 149.47,426.85 149.96,428.50 C150.44,430.15 151.56,433.98 152.45,437.00 C153.34,440.02 154.75,444.98 155.58,448.00 C156.41,451.02 157.55,455.08 158.11,457.00 C158.67,458.92 159.48,462.08 159.90,464.00 C161.04,469.25 164.58,476.69 167.97,480.96 L 170.98 484.76 L 166.79 493.63 C162.88,501.92 162.57,503.22 162.05,513.50 L 161.50 524.50 L 103.00 524.67 C55.97,524.81 43.23,524.57 38.04,523.44 ZM 285.73 105.25 C285.44,95.81 284.67,86.97 283.96,85.00 C279.44,72.30 279.35,72.09 276.74,67.85 C273.80,63.06 268.48,56.59 263.50,51.76 C259.29,47.67 244.61,40.01 237.00,37.93 C230.04,36.03 211.58,36.30 205.00,38.40 C194.21,41.84 181.08,49.77 175.50,56.19 C171.91,60.34 168.00,65.96 168.00,66.99 C168.00,67.55 167.66,68.01 167.25,68.01 C166.49,68.02 164.42,72.33 161.73,79.50 C159.11,86.49 158.00,95.24 158.00,108.81 L 158.00 122.00 L 286.26 122.00 ZM 419.48 508.75 C415.26,497.23 414.90,495.51 416.54,494.50 C420.60,492.01 421.27,491.08 422.53,486.22 C423.71,481.68 423.67,480.58 422.23,477.21 C421.33,475.10 419.45,472.50 418.05,471.44 C415.34,469.38 410.53,469.32 227.44,469.05 C199.90,469.01 190.97,468.70 189.64,467.73 C187.80,466.38 181.08,448.07 181.03,444.25 C181.01,442.46 181.57,441.99 183.75,441.96 C185.26,441.93 233.07,441.94 290.00,441.98 C360.24,442.03 396.04,441.70 401.40,440.95 C412.90,439.35 418.97,436.70 428.40,429.19 C432.64,425.80 433.67,427.58 434.98,440.50 C435.59,446.55 436.49,453.98 436.97,457.00 C437.46,460.02 437.89,467.11 437.93,472.75 C438.02,485.35 436.20,491.65 429.15,503.17 C425.81,508.62 420.55,511.66 419.48,508.75 ZM 269.93 525.21 L 264.35 524.91 L 264.39 516.71 C264.42,510.76 263.83,506.75 262.23,502.13 C261.02,498.63 260.27,495.36 260.57,494.88 C261.26,493.77 322.70,493.71 323.39,494.82 C323.67,495.27 323.20,496.96 322.35,498.57 C319.85,503.31 317.85,512.02 317.67,519.00 L 317.50 525.50 L 296.50 525.50 C284.95,525.50 272.99,525.37 269.93,525.21 Z" fill="rgb(23,175,213)"/>
<path d="M 224.84 416.24 L 173.19 415.98 L 172.09 412.84 C171.49,411.11 171.00,409.05 171.00,408.25 C171.00,407.45 170.38,405.38 169.63,403.65 C168.28,400.56 167.22,396.97 165.00,388.00 C164.38,385.52 163.48,382.15 162.98,380.50 C159.23,367.98 156.93,359.68 154.94,351.50 C154.40,349.30 153.56,346.60 153.06,345.50 C152.56,344.40 151.93,342.38 151.67,341.00 C151.05,337.83 146.29,320.10 142.93,308.50 C142.46,306.85 141.34,302.80 140.45,299.50 C139.56,296.20 137.75,290.03 136.42,285.78 C135.09,281.54 134.00,277.43 134.00,276.65 C134.00,275.87 133.30,272.82 132.44,269.86 C130.76,264.07 128.80,256.92 127.08,250.38 C126.96,249.92 126.84,249.48 126.73,249.06 C126.03,246.49 125.60,244.89 126.18,243.88 C127.22,242.06 131.49,242.08 143.25,241.65 C156.65,241.16 385.25,240.51 402.28,240.91 C404.40,240.96 406.28,241.57 406.56,242.31 C407.13,243.77 311.59,339.66 309.98,339.25 C309.44,339.11 300.61,330.67 290.38,320.50 L 271.77 302.00 L 266.56 302.00 C262.43,302.00 260.92,302.47 259.30,304.25 C254.95,309.02 253.95,313.50 256.29,317.66 C258.13,320.95 303.05,366.80 306.62,369.04 C308.33,370.12 310.81,371.00 312.12,371.00 C313.94,371.00 329.64,355.77 379.10,306.00 C381.95,303.14 384.68,300.39 387.29,297.76 L 387.29 297.76 C437.71,247.01 444.89,239.78 449.20,241.21 C450.14,241.52 450.94,242.25 452.03,243.02 C457.26,246.75 459.23,251.23 458.72,258.26 C458.29,264.09 455.30,278.02 452.76,286.00 C452.15,287.92 451.30,291.30 450.89,293.50 C450.47,295.70 449.39,300.20 448.48,303.50 C447.57,306.80 446.44,311.30 445.96,313.50 C444.87,318.45 442.59,327.58 440.46,335.50 C439.57,338.80 438.45,343.64 437.98,346.25 C437.51,348.86 436.78,351.54 436.37,352.21 C435.96,352.88 435.29,355.24 434.88,357.46 C433.72,363.80 430.02,379.05 428.43,384.00 C427.64,386.48 426.99,389.46 427.00,390.64 C427.00,391.81 426.33,394.06 425.51,395.64 C424.68,397.21 424.01,399.24 424.01,400.14 C424.00,402.87 414.82,411.75 409.50,414.17 L 404.50 416.45 L 340.50 416.47 C305.30,416.49 253.26,416.38 224.84,416.24 ZM 1421.50 371.53 C1400.27,368.07 1390.02,359.02 1382.40,337.00 C1380.63,331.88 1380.48,327.44 1380.19,273.43 C1379.92,223.79 1380.08,215.18 1381.31,214.15 C1382.35,213.29 1388.43,213.03 1403.13,213.23 L 1423.50 213.50 L 1424.04 265.00 C1424.64,322.51 1424.54,321.65 1431.59,328.50 C1436.34,333.11 1441.59,335.00 1449.66,335.00 C1459.90,335.00 1467.54,331.63 1475.58,323.59 C1480.34,318.83 1481.81,316.63 1482.32,313.50 C1482.68,311.30 1482.98,288.29 1482.99,262.37 C1483.00,223.58 1483.24,215.04 1484.38,214.10 C1485.34,213.30 1492.07,213.04 1506.63,213.23 L 1527.50 213.50 L 1527.50 273.14 C1527.50,328.87 1527.62,332.91 1529.28,334.75 C1530.85,336.49 1531.02,338.55 1530.78,352.61 L 1530.50 368.50 L 1510.79 368.77 L 1491.07 369.04 L 1489.59 366.18 C1488.78,364.60 1487.80,359.87 1487.42,355.66 C1487.04,351.45 1486.37,348.00 1485.93,348.00 C1485.50,348.00 1484.32,349.03 1483.32,350.30 C1481.44,352.67 1468.69,363.00 1467.64,363.00 C1467.32,363.00 1464.68,364.08 1461.78,365.41 C1453.52,369.17 1448.00,370.83 1441.50,371.49 C1438.20,371.83 1434.15,372.27 1432.50,372.47 C1430.85,372.67 1425.90,372.24 1421.50,371.53 ZM 768.78 371.43 C759.84,369.65 751.89,365.62 746.32,360.06 C740.64,354.38 736.00,347.73 736.00,345.27 C736.00,344.24 735.61,342.97 735.13,342.45 C734.65,341.93 733.41,338.80 732.38,335.50 C730.63,329.92 730.50,325.45 730.50,271.50 L 730.50 213.50 L 751.37 213.23 C764.16,213.06 772.71,213.34 773.44,213.95 C774.35,214.71 774.54,225.58 774.23,259.07 C773.78,307.32 774.47,317.65 778.52,323.99 C784.00,332.53 790.38,335.47 802.12,334.83 C811.11,334.35 818.78,331.09 825.50,324.89 C833.74,317.30 833.27,320.68 833.92,264.00 L 834.50 213.50 L 855.73 213.23 L 876.95 212.96 L 877.63 215.68 C878.01,217.17 878.01,243.62 877.63,274.45 C876.98,327.23 877.04,330.65 878.72,333.00 C880.25,335.15 880.50,337.78 880.50,352.00 L 880.50 368.50 L 841.52 368.50 L 839.61 364.50 C838.56,362.30 837.51,358.25 837.27,355.50 C836.60,347.56 836.47,347.53 830.02,353.98 C826.71,357.29 823.56,360.00 823.02,360.00 C822.47,360.00 819.77,361.39 817.01,363.09 C810.28,367.23 803.13,369.81 793.50,371.55 C784.00,373.27 777.87,373.24 768.78,371.43 ZM 1420.00 370.04 C1430.84,371.59 1450.60,369.49 1457.99,366.01 C1458.82,365.61 1461.30,364.46 1463.50,363.44 C1469.47,360.68 1476.98,355.19 1481.63,350.18 C1483.90,347.74 1486.20,346.01 1486.74,346.34 C1487.28,346.67 1487.95,349.77 1488.24,353.22 C1488.52,356.68 1489.33,361.41 1490.03,363.75 L 1491.32 368.00 L 1530.00 368.00 L 1530.00 353.83 C1530.00,341.46 1529.71,338.88 1527.70,333.58 L 1525.39 327.50 L 1525.95 272.00 C1526.25,241.48 1526.14,215.98 1525.71,215.35 C1525.15,214.53 1519.11,214.24 1505.21,214.35 L 1485.50 214.50 L 1484.78 263.00 C1484.39,289.67 1483.81,312.93 1483.50,314.68 C1483.13,316.74 1480.89,319.94 1477.07,323.85 C1467.92,333.20 1461.60,335.96 1449.30,335.98 C1437.53,336.01 1430.82,332.24 1425.81,322.80 C1423.54,318.51 1423.53,318.41 1423.22,266.11 L 1422.90 213.71 L 1402.70 214.44 C1391.60,214.83 1382.36,215.31 1382.18,215.49 C1382.00,215.67 1381.62,237.79 1381.33,264.66 C1380.69,324.57 1381.45,334.03 1387.88,347.11 C1394.14,359.82 1405.57,367.98 1420.00,370.04 ZM 769.00 370.06 C774.93,371.13 795.20,370.37 799.84,368.91 C813.95,364.44 821.34,360.36 830.24,352.12 C833.73,348.89 836.46,347.06 837.00,347.60 C837.50,348.10 838.61,352.53 839.46,357.45 C840.32,362.37 841.58,366.75 842.26,367.18 C842.94,367.62 851.78,367.98 861.91,367.98 L 880.31 368.00 L 879.68 352.01 C879.20,339.69 878.68,335.44 877.42,333.52 C875.95,331.27 875.82,325.42 876.14,273.59 C876.33,242.00 876.17,215.84 875.78,215.45 C875.39,215.06 866.17,214.77 855.28,214.82 L 835.50 214.90 L 835.24 265.07 L 834.98 315.24 L 831.80 319.37 C826.82,325.85 822.01,329.83 815.29,333.04 C809.86,335.63 807.98,336.00 800.23,336.00 C788.09,336.00 784.62,334.27 777.21,324.50 C773.89,320.12 773.56,315.47 773.03,265.19 L 772.50 214.87 L 752.00 214.69 L 731.50 214.50 L 731.21 266.00 C731.04,296.30 731.34,320.59 731.92,325.00 C734.10,341.38 739.70,353.32 748.60,360.53 C756.23,366.71 759.84,368.40 769.00,370.06 ZM 1101.83 371.55 C1098.72,370.87 1094.67,369.71 1092.83,368.99 C1088.34,367.20 1079.46,360.09 1077.87,357.00 C1077.17,355.62 1076.08,353.83 1075.47,353.00 C1074.30,351.42 1072.71,346.55 1070.92,339.00 C1070.29,336.38 1069.62,316.46 1069.30,291.28 L 1068.75 248.07 L 1058.62 247.78 L 1048.50 247.50 L 1048.50 213.50 L 1069.50 212.50 L 1069.60 191.20 C1069.65,178.86 1070.10,169.50 1070.67,168.93 C1071.26,168.34 1080.12,168.07 1093.07,168.23 L 1114.50 168.50 L 1114.45 190.73 L 1114.41 212.95 L 1130.45 213.23 L 1146.50 213.50 L 1146.50 247.50 L 1113.91 248.05 L 1114.50 325.89 L 1118.00 329.51 C1121.43,333.06 1121.62,333.13 1128.00,332.72 C1131.57,332.49 1136.67,331.45 1139.32,330.40 C1144.08,328.53 1144.16,328.53 1145.57,330.44 C1146.36,331.51 1147.00,333.50 1147.00,334.87 C1147.00,336.24 1147.41,338.74 1147.91,340.43 C1153.29,358.62 1153.54,361.47 1150.00,363.54 C1144.75,366.60 1136.00,369.40 1125.00,371.52 C1116.09,373.23 1109.54,373.24 1101.83,371.55 ZM 1102.00 370.37 C1107.32,371.43 1127.57,369.98 1134.00,368.09 C1145.85,364.61 1147.48,363.99 1149.99,362.05 C1152.34,360.24 1152.41,359.93 1151.14,356.81 C1150.39,354.99 1149.43,351.70 1148.99,349.50 C1148.56,347.30 1147.71,343.93 1147.10,342.01 C1146.50,340.09 1146.00,337.34 1146.00,335.91 C1146.00,334.48 1145.12,332.51 1144.04,331.53 C1142.15,329.83 1141.91,329.84 1137.91,331.93 C1135.21,333.34 1131.69,334.16 1127.90,334.26 C1121.00,334.46 1117.78,332.57 1114.57,326.44 C1112.60,322.69 1112.49,320.68 1112.21,285.08 C1111.99,255.44 1112.20,247.49 1113.21,246.85 C1113.92,246.40 1121.59,246.02 1130.25,246.02 L 1146.00 246.00 L 1146.00 215.00 L 1130.06 215.00 C1120.31,215.00 1113.87,214.60 1113.49,213.98 C1113.14,213.42 1112.91,203.06 1112.96,190.96 L 1113.06 168.96 L 1092.28 169.23 L 1071.50 169.50 L 1071.30 191.41 C1071.15,208.13 1070.80,213.52 1069.80,214.19 C1069.09,214.66 1064.34,214.76 1059.25,214.41 L 1050.00 213.76 L 1050.00 246.00 L 1059.46 246.00 C1067.46,246.00 1069.07,246.27 1069.85,247.75 C1070.36,248.71 1071.00,269.98 1071.27,295.00 C1071.80,343.80 1071.75,343.31 1077.28,353.67 C1081.63,361.82 1091.09,368.22 1102.00,370.37 ZM 1286.93 331.86 C1283.38,332.99 1227.94,333.42 1225.25,332.34 C1224.30,331.95 1224.00,325.91 1224.00,306.92 L 1224.00 282.00 L 1256.79 282.00 C1286.16,282.00 1289.94,282.18 1293.04,283.77 C1298.22,286.41 1300.20,288.06 1303.96,292.88 C1307.24,297.08 1307.38,297.64 1307.44,305.88 C1307.51,315.70 1306.51,318.26 1300.08,324.69 C1296.17,328.60 1294.78,329.36 1286.93,331.86 ZM 1292.00 329.00 C1302.92,322.45 1306.40,317.00 1306.35,306.50 C1306.31,298.47 1304.57,294.19 1299.34,289.33 C1292.98,283.43 1290.04,283.00 1255.82,283.00 L 1225.00 283.00 L 1225.00 306.33 C1225.00,319.17 1225.33,329.99 1225.73,330.40 C1226.13,330.80 1240.64,330.98 1257.98,330.81 C1283.81,330.56 1289.95,330.23 1292.00,329.00 ZM 1287.93 243.92 C1283.20,246.38 1272.44,246.92 1244.50,246.09 L 1224.50 245.50 L 1223.96 199.00 L 1252.73 199.01 C1270.44,199.01 1283.04,199.43 1285.50,200.11 C1288.07,200.81 1291.11,202.87 1294.00,205.87 C1305.44,217.76 1302.48,236.34 1287.93,243.92 ZM 1286.79 243.10 C1290.30,241.31 1293.62,238.47 1297.00,234.37 C1299.22,231.67 1299.07,215.69 1296.78,210.90 C1294.86,206.90 1289.11,202.47 1283.92,200.98 C1279.96,199.84 1226.28,199.63 1225.80,200.75 C1225.62,201.16 1225.63,211.29 1225.81,223.25 L 1226.14 245.00 L 1254.61 245.00 C1280.59,245.00 1283.40,244.83 1286.79,243.10 ZM 201.40 542.60 C195.06,539.65 189.64,534.33 186.73,528.20 C185.00,524.55 184.50,521.71 184.50,515.50 C184.51,508.37 184.82,507.01 187.42,503.00 C190.58,498.11 197.81,491.00 199.64,491.00 C200.26,491.00 202.06,490.33 203.64,489.51 C210.67,485.84 224.84,489.07 231.68,495.92 C243.28,507.52 244.05,523.07 233.66,535.51 C225.79,544.92 212.60,547.82 201.40,542.60 ZM 362.50 544.81 C355.31,542.84 347.74,536.53 343.50,529.00 C341.95,526.25 341.55,523.73 341.63,517.19 C341.68,512.44 342.21,508.39 342.86,507.74 C343.49,507.11 344.00,505.84 344.00,504.91 C344.00,503.40 351.46,495.03 355.07,492.50 C357.62,490.71 366.42,487.99 369.64,488.00 C380.97,488.01 393.03,497.43 396.33,508.83 C402.51,530.17 383.37,550.54 362.50,544.81 ZM 1180.60 369.16 C1180.31,368.69 1179.78,322.11 1179.43,265.64 C1178.92,185.11 1179.05,162.64 1180.02,161.48 C1181.07,160.21 1188.64,160.00 1234.37,160.03 C1290.94,160.07 1303.17,160.81 1313.90,164.89 C1324.75,169.00 1336.04,178.99 1340.49,188.38 C1348.17,204.62 1348.12,222.43 1341.61,236.85 C1341.98,235.98 1342.33,235.10 1342.64,234.21 C1345.49,226.08 1345.02,198.62 1341.97,195.57 C1341.44,195.04 1341.00,193.77 1341.00,192.75 C1341.00,187.13 1323.22,168.00 1318.00,168.00 C1317.12,168.00 1315.97,167.63 1315.45,167.17 C1314.93,166.71 1311.57,165.47 1308.00,164.42 C1301.91,162.62 1297.73,162.50 1241.50,162.50 L 1181.50 162.50 L 1181.24 264.00 C1181.10,319.83 1181.21,366.09 1181.48,366.80 C1182.14,368.54 1300.82,368.06 1305.50,366.30 C1307.15,365.67 1310.97,364.42 1314.00,363.50 C1324.23,360.40 1330.29,356.81 1337.50,349.55 C1348.62,338.35 1352.00,329.30 1352.00,310.71 C1352.00,304.26 1351.71,299.65 1351.03,296.13 C1351.43,297.71 1351.93,299.58 1352.40,301.30 C1354.37,308.43 1354.42,314.29 1352.59,323.87 C1347.67,349.66 1327.67,365.19 1294.50,368.97 C1283.70,370.20 1181.34,370.37 1180.60,369.16 ZM 611.00 371.46 C594.97,368.75 584.08,363.90 571.73,353.96 C562.81,346.78 561.44,344.42 564.44,341.42 C565.24,340.62 569.77,334.13 574.51,326.99 C579.25,319.84 583.61,314.00 584.18,314.00 C584.76,314.00 586.64,315.50 588.37,317.32 C591.10,320.22 601.05,327.00 602.57,327.00 C602.87,327.00 605.22,327.99 607.80,329.20 C614.90,332.54 628.66,332.44 635.38,329.01 C640.70,326.29 645.73,320.78 648.65,314.50 C650.38,310.75 650.53,305.82 651.00,235.50 L 651.50 160.50 L 695.50 160.50 L 695.81 233.50 C696.03,285.65 695.79,308.50 694.95,313.50 C693.70,321.04 689.75,333.65 687.13,338.50 C682.97,346.18 677.52,352.68 671.06,357.89 C681.41,349.29 689.46,337.24 691.26,326.50 C694.96,304.33 695.02,302.77 694.76,232.04 L 694.50 162.50 L 651.72 161.96 L 652.25 229.23 C652.80,298.94 652.36,310.54 648.93,317.00 C645.42,323.60 638.83,329.37 632.11,331.71 C620.39,335.80 602.17,330.87 590.16,320.36 C587.42,317.96 584.74,316.00 584.21,316.00 C583.32,316.00 579.42,321.45 573.11,331.50 C571.73,333.70 570.13,335.96 569.55,336.51 C567.82,338.17 564.00,343.86 564.00,344.76 C564.00,347.04 579.86,359.36 587.22,362.79 C595.13,366.48 606.30,369.81 612.50,370.33 C620.74,371.02 636.68,370.82 641.50,369.97 C649.55,368.55 653.60,367.70 656.38,366.76 C643.21,372.51 627.64,374.26 611.00,371.46 ZM 1577.00 427.43 C1568.96,426.04 1563.35,424.66 1562.32,423.83 C1560.97,422.73 1561.47,417.69 1563.59,411.07 C1564.36,408.64 1565.00,405.31 1565.00,403.69 C1565.00,402.06 1565.43,399.10 1565.95,397.12 C1566.48,395.13 1567.16,392.29 1567.46,390.82 L 1568.00 388.14 L 1578.80 388.71 C1589.13,389.25 1589.77,389.17 1593.62,386.74 C1601.99,381.46 1607.45,368.62 1603.53,363.44 C1602.72,362.37 1602.05,360.51 1602.03,359.31 C1602.01,358.10 1601.55,356.84 1601.00,356.50 C1600.45,356.16 1600.00,354.98 1600.00,353.88 C1600.00,352.67 1599.39,350.16 1598.61,347.70 C1599.24,349.24 1599.91,350.92 1600.51,352.50 C1601.97,356.35 1603.81,360.69 1604.58,362.15 C1607.87,368.31 1604.85,377.35 1596.96,385.04 C1592.74,389.15 1591.41,389.84 1586.56,390.45 C1583.35,390.85 1578.69,390.66 1575.52,390.00 C1572.50,389.38 1569.57,389.15 1569.01,389.49 C1568.46,389.84 1568.00,391.86 1568.00,393.99 C1568.00,396.13 1567.53,399.10 1566.96,400.59 C1565.93,403.31 1564.35,411.67 1563.33,419.75 L 1562.80 424.00 L 1566.15 424.07 C1567.99,424.11 1570.40,424.54 1571.50,425.03 C1574.30,426.26 1600.60,425.60 1605.78,424.16 C1609.72,423.07 1611.96,422.12 1616.00,419.84 C1616.82,419.38 1618.40,418.59 1619.50,418.09 C1621.79,417.05 1629.37,409.23 1633.26,403.89 C1636.16,399.91 1643.29,385.04 1645.67,378.00 C1646.51,375.52 1647.77,372.15 1648.46,370.50 C1651.45,363.38 1652.25,361.26 1654.13,355.54 C1655.22,352.22 1656.53,348.72 1657.05,347.76 C1657.57,346.81 1658.00,345.36 1658.00,344.55 C1658.00,343.73 1658.64,341.59 1659.43,339.78 C1660.21,337.98 1662.52,332.00 1664.55,326.50 C1666.59,321.00 1668.81,315.15 1669.49,313.50 C1670.17,311.85 1671.41,308.70 1672.25,306.50 C1673.09,304.30 1674.47,300.70 1675.31,298.50 C1676.16,296.30 1678.04,291.12 1679.50,287.00 C1680.95,282.88 1682.60,278.38 1683.17,277.00 C1683.73,275.62 1684.87,272.48 1685.69,270.00 C1686.52,267.52 1687.79,264.15 1688.51,262.50 C1689.22,260.85 1690.60,257.25 1691.58,254.50 C1692.55,251.75 1693.94,248.79 1694.67,247.92 C1694.75,247.82 1694.83,247.70 1694.90,247.56 C1693.87,252.45 1691.88,257.78 1687.99,268.00 C1686.84,271.02 1685.20,275.52 1684.35,278.00 C1683.50,280.48 1682.21,283.85 1681.49,285.50 C1680.77,287.15 1678.72,292.55 1676.93,297.50 C1675.14,302.45 1673.30,306.93 1672.84,307.45 C1672.38,307.97 1672.00,309.17 1672.00,310.12 C1672.00,311.06 1671.34,313.11 1670.54,314.67 C1669.74,316.23 1667.90,320.88 1666.47,325.00 C1665.03,329.12 1663.24,334.08 1662.50,336.00 C1658.54,346.27 1656.00,353.71 1656.00,355.07 C1656.00,355.91 1655.60,357.03 1655.11,357.55 C1654.62,358.07 1653.21,361.55 1651.97,365.28 C1650.72,369.01 1649.32,372.30 1648.85,372.59 C1648.38,372.88 1648.00,373.96 1648.00,374.99 C1648.00,376.78 1644.91,384.20 1639.23,396.00 C1629.32,416.63 1613.56,426.73 1590.04,427.51 C1584.24,427.71 1578.38,427.67 1577.00,427.43 ZM 1007.49 217.07 C1006.43,216.69 1005.07,216.30 1003.71,216.01 C1001.12,215.45 996.86,214.54 994.25,213.98 C991.64,213.42 984.68,212.54 978.79,212.03 C956.53,210.07 935.69,216.17 924.00,228.05 C917.58,234.59 916.95,235.39 914.71,239.87 C910.22,248.89 909.07,261.62 911.77,272.50 C915.37,287.02 926.43,296.54 946.50,302.40 C949.80,303.36 953.40,304.52 954.50,304.97 C956.41,305.74 959.44,306.59 975.75,310.94 C988.42,314.32 995.01,319.75 994.99,326.81 C994.98,331.52 990.25,336.96 983.70,339.79 C977.82,342.33 962.54,341.02 948.00,336.72 C944.47,335.68 938.96,333.31 933.84,330.77 C936.77,332.11 939.31,333.00 940.57,333.00 C941.78,333.00 944.06,333.67 945.64,334.49 C947.21,335.32 949.42,335.99 950.55,335.99 C951.68,336.00 953.03,336.42 953.55,336.93 C955.08,338.42 973.01,339.99 979.00,339.16 C985.36,338.27 989.49,335.88 991.55,331.90 C996.02,323.26 989.86,315.71 975.39,312.10 C965.92,309.74 955.36,306.80 950.50,305.17 C948.85,304.62 945.70,303.64 943.50,302.98 C928.38,298.51 916.22,288.35 911.64,276.36 C908.32,267.69 908.00,254.58 910.90,246.20 C914.21,236.61 921.87,226.72 930.63,220.72 C942.99,212.26 966.43,208.09 985.00,211.05 C998.21,213.15 1000.80,213.80 1005.94,216.33 C1006.46,216.59 1006.98,216.84 1007.49,217.07 ZM 1633.76 309.53 C1633.68,309.79 1633.60,310.05 1633.52,310.28 C1632.69,312.92 1632.00,316.14 1632.00,317.45 C1632.00,321.14 1630.96,323.00 1628.91,323.00 C1627.68,323.00 1626.83,322.05 1626.42,320.25 C1625.60,316.57 1623.04,308.92 1621.91,306.76 C1621.41,305.81 1621.00,304.30 1621.00,303.42 C1621.00,302.53 1620.37,300.61 1619.59,299.15 C1618.81,297.69 1616.81,292.23 1615.14,287.00 C1610.77,273.33 1609.88,270.81 1608.36,267.85 C1607.61,266.39 1607.00,264.32 1607.00,263.26 C1607.00,262.20 1606.69,261.02 1606.31,260.65 C1605.53,259.87 1603.26,253.94 1602.04,249.50 C1601.59,247.85 1599.77,242.68 1598.02,238.00 C1596.26,233.32 1594.57,228.38 1594.26,227.00 C1593.96,225.62 1593.10,223.61 1592.35,222.53 C1591.61,221.44 1591.00,219.59 1591.00,218.40 C1591.00,214.09 1589.36,213.81 1567.81,214.39 C1554.06,214.76 1547.40,215.30 1547.14,216.07 C1546.78,217.15 1547.55,219.20 1550.59,225.33 C1551.37,226.89 1552.00,228.84 1552.00,229.68 C1552.00,230.51 1552.63,232.39 1553.40,233.85 C1554.18,235.31 1556.68,241.45 1558.96,247.50 C1561.25,253.55 1563.52,259.40 1564.01,260.50 C1566.84,266.84 1572.39,281.00 1573.23,284.00 C1573.61,285.38 1574.46,287.72 1575.37,289.95 C1574.21,287.34 1573.04,284.76 1571.99,282.50 C1570.96,280.30 1569.39,276.70 1568.49,274.50 C1566.79,270.32 1565.63,267.51 1563.53,262.50 C1560.65,255.60 1559.90,253.72 1551.50,232.11 C1548.42,224.20 1546.03,216.77 1546.20,215.61 C1546.49,213.55 1546.98,213.49 1567.87,213.23 C1590.39,212.94 1592.00,213.22 1592.00,217.42 C1592.00,218.62 1592.42,220.03 1592.93,220.55 C1593.80,221.44 1598.05,232.83 1599.99,239.50 C1600.47,241.15 1602.28,246.32 1604.01,251.00 C1605.75,255.68 1607.41,260.62 1607.72,262.00 C1608.02,263.38 1608.60,264.95 1609.01,265.50 C1609.42,266.05 1610.78,269.65 1612.04,273.50 C1613.29,277.35 1614.70,280.93 1615.16,281.45 C1615.62,281.97 1616.00,283.57 1616.00,285.00 C1616.00,286.43 1616.39,288.03 1616.87,288.55 C1617.35,289.07 1618.67,292.42 1619.80,296.00 C1620.94,299.58 1623.02,305.60 1624.43,309.40 C1625.84,313.19 1627.00,317.13 1627.00,318.15 C1627.00,320.50 1629.88,320.58 1630.62,318.25 C1630.93,317.29 1631.55,315.60 1631.99,314.50 C1632.51,313.21 1633.08,311.61 1633.76,309.53 ZM 1696.00 215.18 L 1687.75 214.52 C1683.21,214.15 1676.16,214.00 1672.07,214.18 C1665.13,214.48 1664.59,214.67 1663.90,217.00 C1663.49,218.38 1662.23,221.97 1661.08,224.99 C1659.94,228.00 1659.00,231.09 1659.00,231.83 C1659.00,232.58 1658.38,234.62 1657.63,236.35 C1656.88,238.08 1655.47,242.20 1654.49,245.50 C1653.52,248.80 1652.40,252.40 1652.01,253.50 C1649.32,261.08 1648.74,262.83 1648.03,265.50 C1647.60,267.15 1646.29,270.67 1645.12,273.33 C1644.91,273.81 1644.70,274.30 1644.51,274.79 C1644.81,273.48 1645.01,272.17 1645.01,271.43 C1645.03,269.53 1647.20,262.41 1648.95,258.50 C1649.45,257.40 1650.06,255.38 1650.32,254.00 C1650.82,251.36 1652.77,245.54 1654.01,242.97 C1654.41,242.12 1655.09,239.89 1655.50,238.00 C1655.91,236.11 1656.60,233.88 1657.01,233.03 C1657.43,232.19 1658.78,228.35 1660.02,224.50 C1661.77,219.05 1662.48,216.17 1664.31,214.66 C1666.36,212.97 1669.81,212.98 1677.67,213.00 C1678.57,213.00 1679.51,213.00 1680.52,213.00 L 1696.00 213.00 L 1696.00 215.18 ZM 1642.98 280.14 C1642.81,281.73 1641.62,285.55 1639.51,291.23 C1640.24,289.09 1641.46,285.18 1642.98,280.14 ZM 1021.41 222.32 C1017.16,220.55 1012.95,219.00 1011.97,219.00 C1011.11,219.00 1009.95,218.55 1009.41,218.01 C1009.35,217.95 1009.27,217.89 1009.17,217.83 C1010.81,218.53 1012.09,219.00 1012.46,219.00 C1013.22,219.00 1017.27,220.56 1021.41,222.32 ZM 1350.38 293.48 C1349.97,292.16 1349.49,291.03 1348.92,290.00 C1348.66,289.55 1348.13,288.55 1347.49,287.35 C1347.93,288.07 1348.31,288.67 1348.57,289.00 C1349.21,289.83 1349.98,291.62 1350.27,293.00 C1350.30,293.14 1350.33,293.30 1350.38,293.48 ZM 1595.84 341.40 C1595.38,341.07 1595.00,340.02 1595.00,339.02 C1595.00,338.00 1594.37,335.89 1593.59,334.33 C1594.37,335.89 1595.00,337.76 1595.00,338.50 C1595.00,339.04 1595.35,340.21 1595.84,341.40 ZM 1343.76 280.96 C1342.22,278.90 1340.22,276.81 1337.97,274.82 C1340.27,276.84 1342.28,278.94 1343.76,280.96 ZM 924.32 325.45 C923.98,325.23 923.66,325.01 923.37,324.80 C920.60,322.81 918.61,321.99 918.02,322.58 C918.61,321.99 920.55,322.78 923.23,324.70 C923.58,324.95 923.95,325.20 924.32,325.45 Z" fill="rgb(136,200,83)"/>
<path d="M 1571.50 425.03 C1570.40,424.54 1567.99,424.11 1566.15,424.07 L 1562.80 424.00 L 1563.33 419.75 C1564.35,411.67 1565.93,403.31 1566.96,400.59 C1567.53,399.10 1568.00,396.13 1568.00,393.99 C1568.00,391.86 1568.46,389.84 1569.01,389.49 C1569.57,389.15 1572.50,389.38 1575.52,390.00 C1578.69,390.66 1583.35,390.85 1586.56,390.45 C1591.41,389.84 1592.74,389.15 1596.96,385.04 C1604.85,377.35 1607.87,368.31 1604.58,362.15 C1603.81,360.69 1601.97,356.35 1600.51,352.50 C1599.04,348.65 1597.21,344.23 1596.42,342.67 C1595.64,341.11 1595.00,339.24 1595.00,338.50 C1595.00,337.76 1594.37,335.89 1593.59,334.33 C1592.82,332.77 1591.76,330.38 1591.23,329.00 C1590.71,327.62 1589.54,324.80 1588.64,322.72 C1587.74,320.63 1587.00,318.51 1587.00,317.99 C1587.00,317.48 1585.94,314.68 1584.63,311.78 C1583.33,308.87 1581.46,304.48 1580.48,302.00 C1579.49,299.52 1577.68,295.25 1576.45,292.50 C1575.21,289.75 1573.77,285.92 1573.23,284.00 C1572.39,281.00 1566.84,266.84 1564.01,260.50 C1563.52,259.40 1561.25,253.55 1558.96,247.50 C1556.68,241.45 1554.18,235.31 1553.40,233.85 C1552.63,232.39 1552.00,230.51 1552.00,229.68 C1552.00,228.84 1551.37,226.89 1550.59,225.33 C1547.55,219.20 1546.78,217.15 1547.14,216.07 C1547.40,215.30 1554.06,214.76 1567.81,214.39 C1589.36,213.81 1591.00,214.09 1591.00,218.40 C1591.00,219.59 1591.61,221.44 1592.35,222.53 C1593.10,223.61 1593.96,225.62 1594.26,227.00 C1594.57,228.38 1596.26,233.32 1598.02,238.00 C1599.77,242.68 1601.59,247.85 1602.04,249.50 C1603.26,253.94 1605.53,259.87 1606.31,260.65 C1606.69,261.02 1607.00,262.20 1607.00,263.26 C1607.00,264.32 1607.61,266.39 1608.36,267.85 C1609.88,270.81 1610.77,273.33 1615.14,287.00 C1616.81,292.23 1618.81,297.69 1619.59,299.15 C1620.37,300.61 1621.00,302.53 1621.00,303.42 C1621.00,304.30 1621.41,305.81 1621.91,306.76 C1623.04,308.92 1625.60,316.57 1626.42,320.25 C1626.83,322.05 1627.68,323.00 1628.91,323.00 C1630.96,323.00 1632.00,321.14 1632.00,317.45 C1632.00,316.14 1632.69,312.92 1633.52,310.28 C1634.36,307.65 1635.77,303.02 1636.66,300.00 C1637.55,296.98 1638.62,293.60 1639.03,292.50 C1641.62,285.64 1643.00,281.22 1643.00,279.80 C1643.00,278.90 1643.95,275.99 1645.12,273.33 C1646.29,270.67 1647.60,267.15 1648.03,265.50 C1648.74,262.83 1649.32,261.08 1652.01,253.50 C1652.40,252.40 1653.52,248.80 1654.49,245.50 C1655.47,242.20 1656.88,238.08 1657.63,236.35 C1658.38,234.62 1659.00,232.58 1659.00,231.83 C1659.00,231.09 1659.94,228.00 1661.08,224.99 C1662.23,221.97 1663.49,218.38 1663.90,217.00 C1664.59,214.67 1665.13,214.48 1672.07,214.18 C1676.16,214.00 1683.21,214.15 1687.75,214.52 L 1696.00 215.18 L 1696.00 230.76 C1696.00,242.27 1695.65,246.76 1694.67,247.92 C1693.94,248.79 1692.55,251.75 1691.58,254.50 C1690.60,257.25 1689.22,260.85 1688.51,262.50 C1687.79,264.15 1686.52,267.52 1685.69,270.00 C1684.87,272.48 1683.73,275.62 1683.17,277.00 C1682.60,278.38 1680.95,282.88 1679.50,287.00 C1678.04,291.12 1676.16,296.30 1675.31,298.50 C1674.47,300.70 1673.09,304.30 1672.25,306.50 C1671.41,308.70 1670.17,311.85 1669.49,313.50 C1668.81,315.15 1666.59,321.00 1664.55,326.50 C1662.52,332.00 1660.21,337.98 1659.43,339.78 C1658.64,341.59 1658.00,343.73 1658.00,344.55 C1658.00,345.36 1657.57,346.81 1657.05,347.76 C1656.53,348.72 1655.22,352.22 1654.13,355.54 C1652.25,361.26 1651.45,363.38 1648.46,370.50 C1647.77,372.15 1646.51,375.52 1645.67,378.00 C1643.29,385.04 1636.16,399.91 1633.26,403.89 C1629.37,409.23 1621.79,417.05 1619.50,418.09 C1618.40,418.59 1616.82,419.38 1616.00,419.84 C1611.96,422.12 1609.72,423.07 1605.78,424.16 C1600.60,425.60 1574.30,426.26 1571.50,425.03 ZM 957.50 370.99 C939.57,369.42 922.32,363.36 906.25,352.97 C903.66,351.30 903.36,348.36 905.47,345.34 C906.28,344.19 909.22,338.80 912.01,333.38 C914.79,327.96 917.50,323.10 918.02,322.58 C918.61,321.99 920.60,322.81 923.37,324.80 C928.54,328.51 941.58,334.82 948.00,336.72 C962.54,341.02 977.82,342.33 983.70,339.79 C990.25,336.96 994.98,331.52 994.99,326.81 C995.01,319.75 988.42,314.32 975.75,310.94 C959.44,306.59 956.41,305.74 954.50,304.97 C953.40,304.52 949.80,303.36 946.50,302.40 C926.43,296.54 915.37,287.02 911.77,272.50 C909.07,261.62 910.22,248.89 914.71,239.87 C916.95,235.39 917.58,234.59 924.00,228.05 C935.69,216.17 956.53,210.07 978.79,212.03 C984.68,212.54 991.64,213.42 994.25,213.98 C996.86,214.54 1001.12,215.45 1003.71,216.01 C1006.30,216.56 1008.86,217.46 1009.41,218.01 C1009.95,218.55 1011.11,219.00 1011.97,219.00 C1013.84,219.00 1027.55,224.66 1030.75,226.76 C1033.59,228.62 1033.57,229.66 1030.56,235.09 C1029.22,237.52 1026.24,243.21 1023.92,247.75 C1021.61,252.28 1019.13,256.48 1018.41,257.08 C1017.20,258.08 1012.64,256.22 1000.57,249.79 C995.04,246.84 978.38,243.02 971.00,243.02 C962.24,243.01 957.24,244.56 953.30,248.50 C950.55,251.25 950.00,252.55 950.00,256.25 C950.00,263.59 955.83,267.92 970.50,271.47 C974.35,272.41 978.28,273.58 979.24,274.09 C980.19,274.59 981.64,275.00 982.45,275.00 C983.26,275.00 986.08,275.68 988.72,276.51 C991.35,277.34 995.75,278.73 998.50,279.59 C1016.59,285.29 1027.31,292.93 1032.61,303.88 C1035.08,309.00 1035.33,310.58 1035.41,321.60 C1035.47,329.85 1035.07,334.62 1034.14,336.60 C1033.40,338.19 1032.05,341.06 1031.14,342.97 C1028.05,349.51 1020.51,357.37 1013.13,361.75 C1009.19,364.09 1005.39,366.00 1004.69,366.00 C1003.98,366.00 1002.97,366.42 1002.45,366.92 C1000.43,368.88 980.31,371.94 970.50,371.77 C967.75,371.73 961.90,371.38 957.50,370.99 ZM 612.50 370.33 C606.30,369.81 595.13,366.48 587.22,362.79 C579.86,359.36 564.00,347.04 564.00,344.76 C564.00,343.86 567.82,338.17 569.55,336.51 C570.13,335.96 571.73,333.70 573.11,331.50 C579.42,321.45 583.32,316.00 584.21,316.00 C584.74,316.00 587.42,317.96 590.16,320.36 C602.17,330.87 620.39,335.80 632.11,331.71 C638.83,329.37 645.42,323.60 648.93,317.00 C652.36,310.54 652.80,298.94 652.25,229.23 L 651.72 161.96 L 673.11 162.23 L 694.50 162.50 L 694.76 232.04 C695.02,302.77 694.96,304.33 691.26,326.50 C688.78,341.31 674.39,358.63 658.50,365.92 C655.59,367.26 651.84,368.15 641.50,369.97 C636.68,370.82 620.74,371.02 612.50,370.33 ZM 769.00 370.06 C759.84,368.40 756.23,366.71 748.60,360.53 C739.70,353.32 734.10,341.38 731.92,325.00 C731.34,320.59 731.04,296.30 731.21,266.00 L 731.50 214.50 L 752.00 214.69 L 772.50 214.87 L 773.03 265.19 C773.56,315.47 773.89,320.12 777.21,324.50 C784.62,334.27 788.09,336.00 800.23,336.00 C807.98,336.00 809.86,335.63 815.29,333.04 C822.01,329.83 826.82,325.85 831.80,319.37 L 834.98 315.24 L 835.24 265.07 L 835.50 214.90 L 855.28 214.82 C866.17,214.77 875.39,215.06 875.78,215.45 C876.17,215.84 876.33,242.00 876.14,273.59 C875.82,325.42 875.95,331.27 877.42,333.52 C878.68,335.44 879.20,339.69 879.68,352.01 L 880.31 368.00 L 861.91 367.98 C851.78,367.98 842.94,367.62 842.26,367.18 C841.58,366.75 840.32,362.37 839.46,357.45 C838.61,352.53 837.50,348.10 837.00,347.60 C836.46,347.06 833.73,348.89 830.24,352.12 C821.34,360.36 813.95,364.44 799.84,368.91 C795.20,370.37 774.93,371.13 769.00,370.06 ZM 1102.00 370.37 C1091.09,368.22 1081.63,361.82 1077.28,353.67 C1071.75,343.31 1071.80,343.80 1071.27,295.00 C1071.00,269.98 1070.36,248.71 1069.85,247.75 C1069.07,246.27 1067.46,246.00 1059.46,246.00 L 1050.00 246.00 L 1050.00 229.88 L 1050.00 213.76 L 1059.25 214.41 C1064.34,214.76 1069.09,214.66 1069.80,214.19 C1070.80,213.52 1071.15,208.13 1071.30,191.41 L 1071.50 169.50 L 1092.28 169.23 L 1113.06 168.96 L 1112.96 190.96 C1112.91,203.06 1113.14,213.42 1113.49,213.98 C1113.87,214.60 1120.31,215.00 1130.06,215.00 L 1146.00 215.00 L 1146.00 230.50 L 1146.00 246.00 L 1130.25 246.02 C1121.59,246.02 1113.92,246.40 1113.21,246.85 C1112.20,247.49 1111.99,255.44 1112.21,285.08 C1112.49,320.68 1112.60,322.69 1114.57,326.44 C1117.78,332.57 1121.00,334.46 1127.90,334.26 C1131.69,334.16 1135.21,333.34 1137.91,331.93 C1141.91,329.84 1142.15,329.83 1144.04,331.53 C1145.12,332.51 1146.00,334.48 1146.00,335.91 C1146.00,337.34 1146.50,340.09 1147.10,342.01 C1147.71,343.93 1148.56,347.30 1148.99,349.50 C1149.43,351.70 1150.39,354.99 1151.14,356.81 C1152.41,359.93 1152.34,360.24 1149.99,362.05 C1147.48,363.99 1145.85,364.61 1134.00,368.09 C1127.57,369.98 1107.32,371.43 1102.00,370.37 ZM 1420.00 370.04 C1405.57,367.98 1394.14,359.82 1387.88,347.11 C1381.45,334.03 1380.69,324.57 1381.33,264.66 C1381.62,237.79 1382.00,215.67 1382.18,215.49 C1382.36,215.31 1391.60,214.83 1402.70,214.44 L 1422.90 213.71 L 1423.22 266.11 C1423.53,318.41 1423.54,318.51 1425.81,322.80 C1430.82,332.24 1437.53,336.01 1449.30,335.98 C1461.60,335.96 1467.92,333.20 1477.07,323.85 C1480.89,319.94 1483.13,316.74 1483.50,314.68 C1483.81,312.93 1484.39,289.67 1484.78,263.00 L 1485.50 214.50 L 1505.21 214.35 C1519.11,214.24 1525.15,214.53 1525.71,215.35 C1526.14,215.98 1526.25,241.48 1525.95,272.00 L 1525.39 327.50 L 1527.70 333.58 C1529.71,338.88 1530.00,341.46 1530.00,353.83 L 1530.00 368.00 L 1510.66 368.00 L 1491.32 368.00 L 1490.03 363.75 C1489.33,361.41 1488.52,356.68 1488.24,353.22 C1487.95,349.77 1487.28,346.67 1486.74,346.34 C1486.20,346.01 1483.90,347.74 1481.63,350.18 C1476.98,355.19 1469.47,360.68 1463.50,363.44 C1461.30,364.46 1458.82,365.61 1457.99,366.01 C1450.60,369.49 1430.84,371.59 1420.00,370.04 ZM 1181.48 366.80 C1181.21,366.09 1181.10,319.83 1181.24,264.00 L 1181.50 162.50 L 1241.50 162.50 C1297.73,162.50 1301.91,162.62 1308.00,164.42 C1311.57,165.47 1314.93,166.71 1315.45,167.17 C1315.97,167.63 1317.12,168.00 1318.00,168.00 C1323.22,168.00 1341.00,187.13 1341.00,192.75 C1341.00,193.77 1341.44,195.04 1341.97,195.57 C1345.02,198.62 1345.49,226.08 1342.64,234.21 C1339.11,244.27 1331.81,253.03 1322.25,258.68 C1317.54,261.46 1316.83,263.54 1320.25,264.49 C1329.64,267.12 1341.81,276.47 1345.80,284.14 C1347.05,286.54 1348.45,289.17 1348.92,290.00 C1351.16,294.00 1352.00,299.66 1352.00,310.71 C1352.00,329.30 1348.62,338.35 1337.50,349.55 C1330.29,356.81 1324.23,360.40 1314.00,363.50 C1310.97,364.42 1307.15,365.67 1305.50,366.30 C1300.82,368.06 1182.14,368.54 1181.48,366.80 ZM 1286.93 331.86 C1294.78,329.36 1296.17,328.60 1300.08,324.69 C1306.51,318.26 1307.51,315.70 1307.44,305.88 C1307.38,297.64 1307.24,297.08 1303.96,292.88 C1300.20,288.06 1298.22,286.41 1293.04,283.77 C1289.94,282.18 1286.16,282.00 1256.79,282.00 L 1224.00 282.00 L 1224.00 306.92 C1224.00,325.91 1224.30,331.95 1225.25,332.34 C1227.94,333.42 1283.38,332.99 1286.93,331.86 ZM 1287.93 243.92 C1302.48,236.34 1305.44,217.76 1294.00,205.87 C1291.11,202.87 1288.07,200.81 1285.50,200.11 C1283.04,199.43 1270.44,199.01 1252.73,199.01 L 1223.96 199.00 L 1224.23 222.25 L 1224.50 245.50 L 1244.50 246.09 C1272.44,246.92 1283.20,246.38 1287.93,243.92 Z" fill="rgb(252,252,252)"/>
</g>
</svg>